# xmcd
#
# Track frame offsets:
#	150
#	14038
#	29592
#	45887
#	64712
#	81155
#	90314
#	97308
#	110012
#	117720
#	132167
#	147978
#	158344
#	172924
#	190704
#	207034
#	221883
#
# Disc length: 3188 seconds
#
# Revision: 2
# Processed by: cddbd v1.5.2PL0 Copyright (c) Steve Scherf et al.
# Submitted via: audiograbber 1.83.01
#
DISCID=ec0c7211
DTITLE=Zafiris Melas - Live (Tragoudia apo Zafeiri)
DYEAR=2006
DGENRE=À¡… ¡
TTITLE0=Se Anazito Sti Saloniki
TTITLE1=Ma Pou Pao
TTITLE2=Tis Gerakinas Gios
TTITLE3=Eim¥Aitos Xoris Ftera
TTITLE4=Ente La Magke Nte Votanik
TTITLE5=Esy Milas Stin Kardia Mou
TTITLE6=Ston Kathrepti Sou Koitiesai
TTITLE7=Ma Ti Leo
TTITLE8=Leipeis Exu
TTITLE9=O Aetos
TTITLE10=Ma Esy Klais
TTITLE11=Mipos Eimai Trelos
TTITLE12=Eimai Se Katastasi Ektaktou Anagkis
TTITLE13=Apopse Thelo Na Pio
TTITLE14=Kai Den Boro
TTITLE15=Pepromeno
TTITLE16=Geia Sou Man Salonikh
EXTD=
EXTT0=
EXTT1=
EXTT2=
EXTT3=
EXTT4=
EXTT5=
EXTT6=
EXTT7=
EXTT8=
EXTT9=
EXTT10=
EXTT11=
EXTT12=
EXTT13=
EXTT14=
EXTT15=
EXTT16=
PLAYORDER=
